<svg version="1.1" id="Layer_1" xmlns="http://www.w3.org/2000/svg" x="0" y="0" viewBox="0 0 173.1 164.6" xml:space="preserve">
  <style>
    .st1{fill:#7a4900}.st2{fill:#824e00}.st3{fill:#bb7000}.st4{fill:#a60}.st5{fill:#d88200}.st6{fill:#f29100}
  </style>
  <path class="st1" d="M86.5 0L107 62.9 86.5 91v.2z"/>
  <path class="st2" d="M0 62.9h66.1L86.6 91h.1z"/>
  <path class="st3" d="M66.1 62.9L86.5 0v91.2l.1-.2z"/>
  <path class="st4" d="M173.1 62.9l-53.5 38.8L86.5 91h-.1z"/>
  <path class="st2" d="M86.5 91h-.1.1zm0 0L173 62.9h-66L86.5 91z"/>
  <path class="st3" d="M86.5 91l-33.1 10.7L33 164.6 86.5 91zm0 0l.1-.1-.1.1z"/>
  <path class="st1" d="M119.6 101.7L86.7 91h-.1l53.5 73.6-20.5-62.9zM86.5 91z"/>
  <path class="st5" d="M86.5 91h.1-.1zM0 62.9l53.5 38.9 33-10.8L0 62.9z"/>
  <path class="st4" d="M86.5 91L33 164.6l53.5-38.9V91zm.1-.1l-.1.1.1-.1z"/>
  <path class="st5" d="M86.5 91.2v34.6l53.5 38.9L86.6 91l-.1.2zm0-.2z"/>
  <path class="st6" d="M119.6 101.7l20.4 62.9z"/>
  <path d="M33.1 164.6l20.4-62.9z"/>
  <path class="st6" d="M0 62.9h66.1zM107 62.9h66.1z"/>
  <path d="M66.1 62.9L86.5 0z"/>
  <path class="st6" d="M86.5 0L107 62.9z"/>
  <path fill="#9f7a2a" d="M86.5 90.9l53.5 73.7-53.5-38.8V90.9z"/>
  <path fill="#ebf05e" d="M86.6 90.9l-53.5 73.7 20.4-62.9L86.6 91z"/>
  <path fill="#543610" d="M86.5 90.9v34.9l-53.4 38.8 53.5-73.7z"/>
  <path d="M86.5 91L0 62.9l53.5 38.9 33-10.8zm.2 0h-.1.1z" fill="#9c7824"/>
  <path d="M86.5 91l-.1-.1.1.1zm0 0l53.5 73.6-20.4-62.9L86.5 91z" fill="#7b5119"/>
  <path d="M86.5 91l-.1-.1-20.3-28H0L86.5 91zm.1 0h.1-.1z" fill="#fffe72"/>
  <path d="M86.5 91h-.1.1zm.1-.1l-.1.1L173 62.9h-66l-20.4 28z" fill="#ff7"/>
  <path d="M86.5 91l33.1 10.7 53.5-38.9L86.5 91zm0 0h-.1.1z" fill="#533712"/>
  <path d="M86.5 91v.2-.2zm0-91L66.1 62.9 86.5 91V0z" fill="#e0e055"/>
  <path d="M86.5 91v.2-.2zm0 0zM107 62.9L86.5 0v91L107 62.9z" fill="#754b13"/>
  <path fill="#a46200" d="M86.4 91h.1v-.1h.1v.1h.1-.1l-.1.2V91z"/>
  <g>
    <linearGradient id="SVGID_1_" gradientUnits="userSpaceOnUse" x1="28.816" y1="-46.414" x2="79.957" y2="-46.414" gradientTransform="matrix(1 0 0 -1 0 2)">
      <stop offset="0" stop-color="#fffe72"/>
      <stop offset=".323" stop-color="#fffe72"/>
      <stop offset=".665" stop-color="#e0e055"/>
      <stop offset="1" stop-color="#e0e055"/>
    </linearGradient>
    <path d="M38.1 69l-9.3-4.4 1.5-3.2C40 43 58.1 30.4 78.7 27.9L80 38.1c-17.2 2.1-32.4 12.6-40.5 28L38.1 69z" fill="url(#SVGID_1_)"/>
    <linearGradient id="SVGID_2_" gradientUnits="userSpaceOnUse" x1="92.114" y1="-26.068" x2="144.342" y2="-62.639" gradientTransform="matrix(1 0 0 -1 0 2)">
      <stop offset="0" stop-color="#754b13"/>
      <stop offset=".116" stop-color="#784e15"/>
      <stop offset=".214" stop-color="#80591b"/>
      <stop offset=".305" stop-color="#8d6a24"/>
      <stop offset=".393" stop-color="#a08332"/>
      <stop offset=".478" stop-color="#b8a344"/>
      <stop offset=".561" stop-color="#d6ca5a"/>
      <stop offset=".641" stop-color="#f9f873"/>
      <stop offset=".653" stop-color="#ff7"/>
      <stop offset="1" stop-color="#ff7"/>
    </linearGradient>
    <path d="M135 68.9c-7.9-17.4-24.6-29.2-43.5-31l.9-10.2c22.6 2.1 42.5 16.2 52 37l-9.4 4.2z" fill="url(#SVGID_2_)"/>
    <linearGradient id="SVGID_3_" gradientUnits="userSpaceOnUse" x1="24.391" y1="-76.239" x2="44.599" y2="-134.927" gradientTransform="matrix(1 0 0 -1 0 2)">
      <stop offset="0" stop-color="#9c7824"/>
      <stop offset=".192" stop-color="#9e7b25"/>
      <stop offset=".32" stop-color="#a4842a"/>
      <stop offset=".429" stop-color="#ae9331"/>
      <stop offset=".527" stop-color="#bca83b"/>
      <stop offset=".619" stop-color="#cec448"/>
      <stop offset=".704" stop-color="#e4e559"/>
      <stop offset=".728" stop-color="#ebf05e"/>
      <stop offset="1" stop-color="#ebf05e"/>
    </linearGradient>
    <path d="M43.3 137.4C30.4 125.4 23 108.5 23 90.9c0-4.2.4-8.5 1.3-12.6l10.1 2c-.7 3.5-1 7-1 10.6 0 14.7 6.2 28.9 17 39l-7.1 7.5z" fill="url(#SVGID_3_)"/>
    <g>
      <linearGradient id="SVGID_4_" gradientUnits="userSpaceOnUse" x1="55.68" y1="-143.85" x2="117.401" y2="-143.85" gradientTransform="matrix(1 0 0 -1 0 2)">
        <stop offset="0" stop-color="#543610"/>
        <stop offset=".185" stop-color="#573911"/>
        <stop offset=".346" stop-color="#624315"/>
        <stop offset=".498" stop-color="#74531b"/>
        <stop offset=".644" stop-color="#8d6a24"/>
        <stop offset=".728" stop-color="#9f7a2a"/>
        <stop offset="1" stop-color="#9f7a2a"/>
      </linearGradient>
      <path d="M86.5 154.3c-10.8 0-21.5-2.8-30.9-8l5-9c7.9 4.4 16.8 6.7 25.9 6.7 9.1 0 18-2.3 25.9-6.7l5 9c-9.4 5.3-20.1 8-30.9 8z" fill="url(#SVGID_4_)"/>
    </g>
    <g>
      <linearGradient id="SVGID_5_" gradientUnits="userSpaceOnUse" x1="128.382" y1="-135.471" x2="148.675" y2="-76.536" gradientTransform="matrix(1 0 0 -1 0 2)">
        <stop offset="0" stop-color="#7b5119"/>
        <stop offset=".528" stop-color="#5a3b13"/>
        <stop offset=".624" stop-color="#533712"/>
        <stop offset="1" stop-color="#533712"/>
      </linearGradient>
      <path d="M129.3 137.8l-6.9-7.6c11-10.1 17.4-24.4 17.4-39.3 0-3.5-.3-6.9-1-10.3l10.1-2c.8 4 1.2 8.1 1.2 12.3-.1 17.8-7.6 34.9-20.8 46.9z" fill="url(#SVGID_5_)"/>
    </g>
  </g>
</svg>
